<svg width="25" height="24" viewBox="0 0 25 24" fill="none" xmlns="http://www.w3.org/2000/svg">
<g clip-path="url(#clip0_2899_2207)">
<path fill-rule="evenodd" clip-rule="evenodd" d="M16.6666 12C16.6666 14.2091 14.8758 16 12.6666 16C10.4575 16 8.66663 14.2091 8.66663 12C8.66663 9.79086 10.4575 8 12.6666 8C14.8758 8 16.6666 9.79086 16.6666 12ZM14.6666 12C14.6666 13.1046 13.7712 14 12.6666 14C11.5621 14 10.6666 13.1046 10.6666 12C10.6666 10.8954 11.5621 10 12.6666 10C13.7712 10 14.6666 10.8954 14.6666 12Z" fill="#342824"/>
<path fill-rule="evenodd" clip-rule="evenodd" d="M12.6666 3C18.2581 3 22.9564 6.82432 24.2886 12C22.9564 17.1757 18.2581 21 12.6666 21C7.07511 21 2.37681 17.1757 1.04468 12C2.37681 6.82432 7.07511 3 12.6666 3ZM12.6666 19C8.19106 19 4.39794 16.0581 3.12386 12C4.39794 7.94186 8.19106 5 12.6666 5C17.1422 5 20.9353 7.94186 22.2094 12C20.9353 16.0581 17.1422 19 12.6666 19Z" fill="#342824"/>
</g>
<defs>
<clipPath id="clip0_2899_2207">
<rect width="24" height="24" fill="white" transform="translate(0.666748)"/>
</clipPath>
</defs>
</svg>
