<svg width="45" height="24" viewBox="0 0 45 24" fill="none" xmlns="http://www.w3.org/2000/svg">
<g clip-path="url(#clip0_2114_19243)">
<path d="M25.5484 11.2678C23.3283 13.3257 21.2303 15.2527 19.1878 17.2272C18.9102 17.5008 18.888 18.0718 18.7437 18.5C19.1323 18.3929 19.5985 18.3929 19.8982 18.155C22.2182 16.2518 24.516 14.313 26.7694 12.3265C26.9914 12.1243 27.0802 11.3749 26.9137 11.1489C26.4142 10.4709 25.7926 9.86423 25.1376 9.32895C23.3394 7.85397 21.4967 6.42657 19.6762 4.97538C19.4764 4.82075 19.2988 4.55906 19.0768 4.52338C18.7326 4.4639 18.3552 4.53527 18 4.54716C18.1332 4.86833 18.1887 5.30844 18.4218 5.49876C20.2867 7.04511 22.1738 8.53199 24.0609 10.0545C24.5715 10.4709 25.0932 10.8872 25.5484 11.2678Z" fill="#342824"/>
<path d="M7.54837 11.2678C5.32826 13.3257 3.23026 15.2527 1.18776 17.2272C0.910243 17.5008 0.888043 18.0718 0.743736 18.5C1.13225 18.3929 1.59848 18.3929 1.89819 18.155C4.2182 16.2518 6.51602 14.313 8.76943 12.3265C8.99144 12.1243 9.08024 11.3749 8.91373 11.1489C8.41421 10.4709 7.79258 9.86423 7.13765 9.32895C5.33936 7.85397 3.49667 6.42657 1.67618 4.97538C1.47637 4.82075 1.29876 4.55906 1.07675 4.52338C0.732635 4.4639 0.355217 4.53527 -2.06151e-09 4.54716C0.133206 4.86833 0.188708 5.30844 0.42182 5.49876C2.28671 7.04511 4.1738 8.53199 6.06089 10.0545C6.57152 10.4709 7.09324 10.8872 7.54837 11.2678Z" fill="#342824"/>
<path d="M34.5484 11.2678C32.3283 13.3257 30.2303 15.2527 28.1878 17.2272C27.9102 17.5008 27.888 18.0718 27.7437 18.5C28.1323 18.3929 28.5985 18.3929 28.8982 18.155C31.2182 16.2518 33.516 14.313 35.7694 12.3265C35.9914 12.1243 36.0802 11.3749 35.9137 11.1489C35.4142 10.4709 34.7926 9.86423 34.1376 9.32895C32.3394 7.85397 30.4967 6.42657 28.6762 4.97538C28.4764 4.82075 28.2988 4.55906 28.0768 4.52338C27.7326 4.4639 27.3552 4.53527 27 4.54716C27.1332 4.86833 27.1887 5.30844 27.4218 5.49876C29.2867 7.04511 31.1738 8.53199 33.0609 10.0545C33.5715 10.4709 34.0932 10.8872 34.5484 11.2678Z" fill="#342824"/>
<path d="M16.5484 11.2678C14.3283 13.3257 12.2303 15.2527 10.1878 17.2272C9.91024 17.5008 9.88804 18.0718 9.74374 18.5C10.1323 18.3929 10.5985 18.3929 10.8982 18.155C13.2182 16.2518 15.516 14.313 17.7694 12.3265C17.9914 12.1243 18.0802 11.3749 17.9137 11.1489C17.4142 10.4709 16.7926 9.86423 16.1376 9.32895C14.3394 7.85397 12.4967 6.42657 10.6762 4.97538C10.4764 4.82075 10.2988 4.55906 10.0768 4.52338C9.73263 4.4639 9.35522 4.53527 9 4.54716C9.13321 4.86833 9.18871 5.30844 9.42182 5.49876C11.2867 7.04511 13.1738 8.53199 15.0609 10.0545C15.5715 10.4709 16.0932 10.8872 16.5484 11.2678Z" fill="#342824"/>
<path d="M43.5484 11.2678C41.3283 13.3257 39.2303 15.2527 37.1878 17.2272C36.9102 17.5008 36.888 18.0718 36.7437 18.5C37.1323 18.3929 37.5985 18.3929 37.8982 18.155C40.2182 16.2518 42.516 14.313 44.7694 12.3265C44.9914 12.1243 45.0802 11.3749 44.9137 11.1489C44.4142 10.4709 43.7926 9.86423 43.1376 9.32895C41.3394 7.85397 39.4967 6.42657 37.6762 4.97538C37.4764 4.82075 37.2988 4.55906 37.0768 4.52338C36.7326 4.4639 36.3552 4.53527 36 4.54716C36.1332 4.86833 36.1887 5.30844 36.4218 5.49876C38.2867 7.04511 40.1738 8.53199 42.0609 10.0545C42.5715 10.4709 43.0932 10.8872 43.5484 11.2678Z" fill="#342824"/>
</g>
<defs>
<clipPath id="clip0_2114_19243">
<rect width="45" height="23" fill="white" transform="translate(0 0.5)"/>
</clipPath>
</defs>
</svg>
