<svg width="153" height="11" viewBox="0 0 153 11" fill="none" xmlns="http://www.w3.org/2000/svg">
<path d="M4.02206 3.16089V8.74993H3.09624V6.25864H1.31081V8.74993H0.384644V3.16089H1.31081V5.4711H3.09624V3.16089H4.02206Z" fill="#473833"/>
<path d="M10.0916 3.27805C10.2784 3.20011 10.4757 3.13828 10.6836 3.09158C10.8918 3.04589 11.118 3.02271 11.3618 3.02271C11.8638 3.02271 12.273 3.17726 12.5886 3.48569C12.9041 3.79445 13.062 4.27558 13.062 4.92839V8.63326C12.8039 8.70448 12.54 8.76127 12.271 8.8036C12.0017 8.84593 11.7388 8.8671 11.48 8.8671C11.2219 8.8671 10.9804 8.83485 10.7539 8.77135C10.5277 8.70751 10.3307 8.60503 10.1619 8.46257C9.99312 8.32113 9.85863 8.14138 9.7581 7.925C9.65791 7.7083 9.6073 7.44456 9.6073 7.13176C9.6073 6.8408 9.65179 6.5868 9.74213 6.37043C9.83213 6.15405 9.95542 5.97296 10.1137 5.82714C10.2713 5.682 10.4574 5.57179 10.6727 5.49754C10.8884 5.42262 11.1214 5.38533 11.3723 5.38533C11.6091 5.38533 11.8706 5.41422 12.1579 5.471V4.95997C12.1579 4.54806 12.0767 4.2608 11.9154 4.09717C11.7544 3.93456 11.5225 3.85224 11.2212 3.85224C11.0558 3.85224 10.8999 3.86837 10.7532 3.90029C10.6058 3.93255 10.4496 3.98428 10.2849 4.05484L10.0913 3.27772L10.0916 3.27805ZM10.5331 7.121C10.5331 7.44791 10.6194 7.68881 10.7909 7.84504C10.9634 8.00161 11.2073 8.07956 11.5228 8.07956C11.7164 8.07956 11.9287 8.05503 12.1582 8.00497V6.22663C11.9426 6.16984 11.7313 6.14196 11.5228 6.14196C11.387 6.14196 11.2572 6.15808 11.1353 6.18933C11.0137 6.22158 10.9081 6.275 10.8184 6.34926C10.7284 6.42384 10.6588 6.5233 10.6085 6.64694C10.5579 6.77125 10.5331 6.92916 10.5331 7.12067V7.121Z" fill="#473833"/>
<path d="M18.9805 3.16138H19.9063V7.96288H21.5318V3.16138H22.4572V8.00522H23.1457V10.2939H22.2412V8.75042H18.9805V3.16138Z" fill="#473833"/>
<path d="M31.9799 3.12866V8.74997H31.1084V4.70442C30.9576 4.9816 30.7888 5.29709 30.603 5.65189C30.4162 6.00702 30.2311 6.36887 30.0487 6.73778C29.8653 7.10702 29.6935 7.46719 29.5315 7.81829C29.3702 8.16973 29.2357 8.48018 29.1277 8.74997H28.3958V3.12866H29.2577V6.81237C29.3865 6.52141 29.5359 6.20726 29.7074 5.87027C29.8789 5.53295 30.0545 5.19932 30.2332 4.86938C30.4118 4.53979 30.5891 4.22363 30.7643 3.92192C30.9396 3.62021 31.1019 3.35612 31.252 3.12866H31.9802H31.9799Z" fill="#473833"/>
<path d="M41.5898 5.96047C41.5898 6.40094 41.5497 6.80009 41.4709 7.15791C41.3922 7.51674 41.2726 7.82349 41.1109 8.07917C40.9493 8.33418 40.7448 8.53375 40.4972 8.67487C40.2496 8.81665 39.9576 8.88788 39.62 8.88788C39.2824 8.88788 38.9889 8.81665 38.7376 8.67487C38.4866 8.53342 38.2808 8.33418 38.1195 8.07917C37.9578 7.82349 37.8376 7.5164 37.7588 7.15791C37.6793 6.80009 37.6406 6.40094 37.6406 5.96047C37.6406 5.52806 37.6797 5.13059 37.7588 4.76841C37.8379 4.40655 37.9578 4.09577 38.1195 3.83673C38.2805 3.57735 38.4866 3.37744 38.7376 3.23499C38.9889 3.0932 39.2827 3.02197 39.62 3.02197C39.9576 3.02197 40.2496 3.0932 40.4972 3.23499C40.7448 3.37744 40.9489 3.57735 41.1109 3.83673C41.2726 4.09543 41.3922 4.40655 41.4709 4.76841C41.5497 5.13059 41.5898 5.52806 41.5898 5.96047ZM40.6209 5.96047C40.6209 5.64868 40.6035 5.36276 40.5675 5.10338C40.5315 4.84467 40.4738 4.62125 40.3947 4.43276C40.3162 4.24461 40.2123 4.09947 40.0829 3.99632C39.9542 3.89351 39.8 3.84177 39.6203 3.84177C39.4335 3.84177 39.2783 3.89351 39.1523 3.99632C39.0263 4.09947 38.9227 4.24461 38.8402 4.43276C38.7573 4.62125 38.6982 4.84467 38.6622 5.10338C38.6262 5.36276 38.6089 5.64834 38.6089 5.96047C38.6089 6.27293 38.6262 6.55852 38.6622 6.81756C38.6982 7.07694 38.7573 7.29869 38.8402 7.48314C38.9227 7.66759 39.0263 7.81173 39.1523 7.91454C39.2783 8.01769 39.4335 8.06875 39.6203 8.06875C39.8 8.06875 39.9542 8.01769 40.0829 7.91454C40.2123 7.81173 40.3162 7.66759 40.3947 7.48314C40.4738 7.29902 40.5315 7.07694 40.5675 6.81756C40.6035 6.55885 40.6209 6.27327 40.6209 5.96047Z" fill="#473833"/>
<path d="M50.8873 3.16138V8.75042H49.9615V6.25912H48.1753V8.75042H47.2495V3.16138H48.1753V5.47159H49.9615V3.16138H50.8873Z" fill="#473833"/>
<path d="M56.9575 3.27805C57.1443 3.20011 57.3416 3.13828 57.5488 3.09158C57.7573 3.04589 57.9832 3.02271 58.2274 3.02271C58.7294 3.02271 59.1383 3.17726 59.4541 3.48569C59.7697 3.79445 59.9272 4.27558 59.9272 4.92839V8.63326C59.6688 8.70448 59.4052 8.76127 59.1362 8.8036C58.8669 8.84593 58.604 8.8671 58.3452 8.8671C58.0868 8.8671 57.845 8.83485 57.6188 8.77135C57.3933 8.70751 57.1956 8.60503 57.0268 8.46257C56.8587 8.32113 56.7242 8.14138 56.623 7.925C56.5228 7.7083 56.4722 7.44456 56.4722 7.13176C56.4722 6.8408 56.5173 6.5868 56.6067 6.37043C56.6967 6.15405 56.8203 5.97296 56.9786 5.82714C57.1362 5.682 57.3223 5.57179 57.5379 5.49754C57.7529 5.42262 57.9862 5.38533 58.2372 5.38533C58.474 5.38533 58.7362 5.41422 59.0228 5.471V4.95997C59.0228 4.54806 58.942 4.2608 58.781 4.09717C58.6193 3.93456 58.388 3.85224 58.0864 3.85224C57.9221 3.85224 57.7651 3.86837 57.6184 3.90029C57.4717 3.93255 57.3151 3.98428 57.1507 4.05484L56.9568 3.27772L56.9575 3.27805ZM57.3983 7.121C57.3983 7.44791 57.4846 7.68881 57.6568 7.84504C57.829 8.00161 58.0732 8.07956 58.3887 8.07956C58.5823 8.07956 58.7942 8.05503 59.0238 8.00497V6.22663C58.8088 6.16984 58.5969 6.14196 58.3887 6.14196C58.2525 6.14196 58.1231 6.15808 58.0012 6.18933C57.8796 6.22158 57.7733 6.275 57.6833 6.34926C57.594 6.42384 57.524 6.5233 57.4734 6.64694C57.4238 6.77125 57.3983 6.92916 57.3983 7.12067V7.121Z" fill="#473833"/>
<path d="M68.5894 8.75009V3.94858H67.4269V4.51303C67.4269 5.1944 67.3858 5.80118 67.3036 6.33371C67.2207 6.86625 67.0862 7.32385 66.8998 7.70687C66.713 8.08317 66.4841 8.3654 66.211 8.55355C65.9386 8.7417 65.5983 8.84249 65.1891 8.85694L65.0811 8.03681C65.3894 7.98742 65.6248 7.88662 65.7861 7.73409C65.9474 7.58121 66.0782 7.384 66.1791 7.14276C66.3007 6.82358 66.3866 6.42443 66.4372 5.94498C66.4878 5.46621 66.5126 4.92864 66.5126 4.33261V3.16138H69.5149V8.75043H68.5894V8.75009Z" fill="#473833"/>
<path d="M75.499 3.16113H76.4245V5.22675C76.6402 5.18374 76.8511 5.16257 77.06 5.16257C77.6333 5.16257 78.0975 5.3225 78.4531 5.64202C78.8084 5.96087 78.986 6.41511 78.986 7.00443C78.986 7.3525 78.9337 7.64515 78.8294 7.88269C78.7259 8.1209 78.5802 8.31241 78.3944 8.45789C78.2076 8.60303 77.9889 8.70786 77.7372 8.7717C77.4865 8.8352 77.2101 8.86745 76.9095 8.86745C76.6578 8.86745 76.4154 8.84964 76.1824 8.81403C75.949 8.77842 75.7218 8.73272 75.499 8.6756V3.16147V3.16113ZM76.4245 8.02615C76.5108 8.04059 76.593 8.05236 76.6721 8.06344C76.7509 8.07386 76.8375 8.07957 76.9299 8.07957C77.2963 8.07957 77.5708 7.99591 77.7532 7.8296C77.9366 7.66262 78.0279 7.39114 78.0279 7.01518C78.0279 6.866 78.0096 6.72758 77.9739 6.5999C77.9379 6.47189 77.8805 6.36001 77.8017 6.26426C77.7229 6.1685 77.6149 6.09223 77.4787 6.03545C77.3429 5.97867 77.1737 5.95079 76.9734 5.95079C76.8939 5.95079 76.808 5.95583 76.7152 5.96658C76.6215 5.977 76.525 5.98976 76.4245 6.00387V8.02648V8.02615Z" fill="#473833"/>
<path d="M88.0674 3.16113V8.75018H87.1419V6.25888H85.3555V8.75018H84.4297V3.16113H85.3555V5.47134H87.1419V3.16113H88.0674Z" fill="#473833"/>
<path d="M94.0504 3.16138H94.9766V5.22699C95.1909 5.18399 95.4035 5.16282 95.6106 5.16282C96.1846 5.16282 96.6499 5.32274 97.0048 5.64226C97.3594 5.96111 97.5367 6.41536 97.5367 7.00467C97.5367 7.35275 97.4844 7.64539 97.3811 7.88293C97.2769 8.12114 97.1318 8.31265 96.945 8.45813C96.7583 8.60327 96.5395 8.7081 96.2889 8.77194C96.0372 8.83544 95.7614 8.86769 95.4595 8.86769C95.2089 8.86769 94.9667 8.84989 94.7337 8.81427C94.5007 8.77866 94.2722 8.73296 94.05 8.67585V3.16171L94.0504 3.16138ZM94.9766 8.02639C95.0622 8.04084 95.1447 8.0526 95.2235 8.06369C95.3026 8.0741 95.3882 8.07981 95.4823 8.07981C95.8474 8.07981 96.1221 7.99616 96.3055 7.82984C96.4882 7.66286 96.5793 7.39139 96.5793 7.01543C96.5793 6.86625 96.562 6.72782 96.526 6.60015C96.49 6.47214 96.4325 6.36026 96.3538 6.2645C96.2743 6.16875 96.167 6.09248 96.0308 6.0357C95.8942 5.97892 95.7254 5.95104 95.5251 5.95104C95.4459 5.95104 95.3597 5.95608 95.2666 5.96683C95.1739 5.97724 95.0764 5.99 94.9766 6.00412V8.02673V8.02639ZM98.6782 8.75043V3.16138H99.6037V8.75043H98.6782Z" fill="#473833"/>
<path d="M109.17 3.12889V8.7502H108.299V4.70465C108.148 4.98184 107.98 5.29732 107.793 5.65212C107.606 6.00725 107.422 6.3691 107.239 6.73801C107.055 7.10726 106.884 7.46743 106.722 7.81853C106.561 8.16996 106.426 8.48041 106.318 8.7502H105.586V3.12889H106.447V6.8126C106.576 6.52164 106.726 6.2075 106.897 5.87051C107.068 5.53318 107.244 5.19955 107.422 4.86962C107.602 4.54002 107.779 4.22386 107.953 3.92215C108.129 3.62044 108.291 3.35635 108.442 3.12889H109.17H109.17ZM107.373 1.59615C107.567 1.59615 107.717 1.53568 107.825 1.41472C107.933 1.29444 108.008 1.09957 108.052 0.829102L108.729 0.978284C108.658 1.43992 108.499 1.76986 108.256 1.96842C108.012 2.16732 107.717 2.26677 107.373 2.26677C107.029 2.26677 106.735 2.16732 106.491 1.96842C106.248 1.76986 106.089 1.44026 106.018 0.978284L106.696 0.829102C106.739 1.09923 106.814 1.29411 106.921 1.41472C107.029 1.53568 107.18 1.59615 107.374 1.59615H107.373Z" fill="#473833"/>
<path d="M125.033 8.75042H124.107V3.94892H122.483V8.75042H121.557V3.16138H125.033V8.75042Z" fill="#473833"/>
<path d="M131.102 3.27805C131.289 3.20011 131.486 3.13828 131.694 3.09158C131.902 3.04589 132.128 3.02271 132.372 3.02271C132.874 3.02271 133.283 3.17726 133.599 3.48569C133.914 3.79445 134.073 4.27558 134.073 4.92839V8.63326C133.814 8.70448 133.551 8.76127 133.282 8.8036C133.013 8.84593 132.749 8.8671 132.49 8.8671C132.233 8.8671 131.99 8.83485 131.765 8.77135C131.538 8.70751 131.341 8.60503 131.173 8.46257C131.004 8.32113 130.869 8.14138 130.769 7.925C130.668 7.7083 130.618 7.44456 130.618 7.13176C130.618 6.8408 130.663 6.5868 130.753 6.37043C130.843 6.15405 130.966 5.97296 131.124 5.82714C131.282 5.682 131.468 5.57179 131.683 5.49754C131.899 5.42262 132.132 5.38533 132.383 5.38533C132.62 5.38533 132.882 5.41422 133.169 5.471V4.95997C133.169 4.54806 133.087 4.2608 132.926 4.09717C132.765 3.93456 132.534 3.85224 132.232 3.85224C132.067 3.85224 131.911 3.86837 131.764 3.90029C131.617 3.93255 131.461 3.98428 131.296 4.05484L131.102 3.27772L131.102 3.27805ZM131.544 7.121C131.544 7.44791 131.63 7.68881 131.802 7.84504C131.974 8.00161 132.218 8.07956 132.534 8.07956C132.728 8.07956 132.939 8.05503 133.169 8.00497V6.22663C132.953 6.16984 132.742 6.14196 132.534 6.14196C132.397 6.14196 132.268 6.15808 132.146 6.18933C132.025 6.22158 131.919 6.275 131.829 6.34926C131.739 6.42384 131.669 6.5233 131.619 6.64694C131.569 6.77125 131.544 6.92916 131.544 7.12067V7.121Z" fill="#473833"/>
<path d="M140.904 10.72H139.979V3.31031C140.179 3.22463 140.407 3.15576 140.662 3.10267C140.917 3.04892 141.176 3.02271 141.442 3.02271C141.837 3.02271 142.176 3.09057 142.459 3.22463C142.743 3.36003 142.972 3.55322 143.148 3.80487C143.323 4.05652 143.453 4.36563 143.535 4.73117C143.618 5.09639 143.66 5.51367 143.66 5.9817C143.66 6.92581 143.507 7.64649 143.202 8.14307C142.897 8.63965 142.4 8.88794 141.712 8.88794C141.546 8.88794 141.399 8.8718 141.27 8.84056C141.142 8.8083 141.019 8.76429 140.904 8.70717V10.7197V10.72ZM140.904 7.90955C141.112 8.02312 141.335 8.0799 141.572 8.0799C141.751 8.0799 141.909 8.04429 142.045 7.97306C142.182 7.9025 142.298 7.78491 142.395 7.62196C142.492 7.45834 142.565 7.2423 142.615 6.97284C142.666 6.70271 142.691 6.36942 142.691 5.97195C142.691 5.20558 142.592 4.65726 142.395 4.32665C142.197 3.99705 141.883 3.83141 141.453 3.83141C141.374 3.83141 141.288 3.83713 141.195 3.84788C141.101 3.85863 141.004 3.87845 140.904 3.90634V7.90955H140.904Z" fill="#473833"/>
<path d="M152.817 3.16138C152.516 3.6714 152.227 4.13706 151.95 4.55872C151.674 4.98038 151.4 5.37482 151.127 5.74305C151.3 5.94195 151.475 6.16572 151.654 6.41468C151.834 6.66364 152.006 6.92134 152.171 7.18777C152.337 7.45454 152.49 7.72131 152.634 7.98808C152.777 8.25485 152.9 8.50919 153 8.75042H151.99C151.882 8.51591 151.757 8.27031 151.613 8.01429C151.469 7.75861 151.319 7.50796 151.161 7.2627C151.003 7.01709 150.845 6.78427 150.686 6.56386C150.529 6.34346 150.382 6.15833 150.245 6.00916V8.75042H149.32V3.16138H150.245V5.56196C150.375 5.39229 150.513 5.20112 150.66 4.98844C150.807 4.7761 150.953 4.56208 151.096 4.34605C151.24 4.13035 151.376 3.91901 151.506 3.71406C151.635 3.50878 151.743 3.32466 151.828 3.16171H152.818L152.817 3.16138Z" fill="#473833"/>
</svg>
