<svg width="154" height="38" viewBox="0 0 154 38" fill="none" xmlns="http://www.w3.org/2000/svg">
<path d="M2.41926 37.2952C4.82756 31.72 6.5009 25.8211 8.37293 20.052C10.3231 14.0339 11.9091 6.72864 15.6844 1.51958C15.0565 1.43794 14.4282 1.35428 13.7998 1.27398C16.1249 12.1342 19.8853 22.6713 22.2162 33.5729C22.4886 34.8577 24.4723 34.3107 24.1993 33.0303C21.8698 22.1287 18.1091 11.593 15.7874 0.733723C15.587 -0.20669 14.3772 -0.160998 13.9041 0.492822C10.7252 4.88545 9.27159 10.838 7.57786 15.8935C5.30915 22.6642 3.48432 29.6977 0.63688 36.2675C0.124721 37.4562 1.89521 38.4977 2.41926 37.2956V37.2952Z" fill="#473833"/>
<path d="M30.1624 35.6424C31.6531 29.4557 33.8657 23.372 35.0972 17.1453C36.0907 12.1345 36.5064 6.91701 39.6836 2.69103C39.1466 2.75756 38.6049 2.82509 38.0727 2.89531C41.611 6.45604 42.4448 12.248 43.5404 16.9333C44.9736 23.0122 46.3338 29.1281 47.0141 35.3491C47.1608 36.6362 49.218 36.6497 49.0791 35.3491C48.3295 28.5428 46.8154 21.8662 45.2511 15.2067C44.1402 10.4976 43.0785 5.02678 39.5212 1.45428C39.0186 0.94964 38.2931 1.14451 37.9053 1.65957C34.9268 5.62415 34.1857 10.4976 33.3577 15.2547C32.1934 21.9552 29.7708 28.4749 28.1797 35.0998C27.8723 36.3755 29.8571 36.9181 30.1621 35.6424H30.1624Z" fill="#473833"/>
<path d="M4.62997 13.8175C9.86261 13.3024 14.8687 15.6103 20.0983 15.0956C21.41 14.9669 21.4208 12.9332 20.0983 13.0582C14.8765 13.5756 9.86465 11.2637 4.62997 11.7825C3.32444 11.9118 3.31289 13.9492 4.62997 13.8175Z" fill="#473833"/>
<path d="M56.7231 34.6057C57.6224 28.5577 60.9541 23.2888 62.8228 17.523C64.4822 12.3939 65.8169 7.24298 69.2798 2.91352C68.7428 2.84566 68.2001 2.77846 67.6632 2.70925C69.8541 7.34814 71.3149 12.3603 72.4628 17.3449C73.8821 23.486 73.4331 29.9285 74.6252 36.1266C74.8711 37.4171 76.8566 36.8722 76.6103 35.5897C75.4138 29.3734 75.7273 22.9985 74.4489 16.8023C73.3832 11.64 71.6901 6.45611 69.4438 1.68148C69.1789 1.1261 68.2157 0.983982 67.8262 1.47485C64.8809 5.1562 62.9664 9.56361 61.6568 14.048C59.6934 20.784 55.7789 27.0951 54.7362 34.063C54.544 35.3445 56.5302 35.8972 56.7227 34.6057H56.7231Z" fill="#473833"/>
<path d="M56.968 16.5861C61.1376 16.1661 65.291 15.5563 69.4922 15.5032C70.8164 15.4918 70.8201 13.4544 69.4922 13.4706C65.291 13.5196 61.1376 14.1348 56.968 14.5524C55.6601 14.6821 55.6438 16.7182 56.968 16.5861Z" fill="#473833"/>
<path d="M86.5058 2.55405C86.4124 8.34301 87.2261 14.0352 86.9429 19.8353C86.6725 25.4058 86.2596 30.9579 86.2667 36.5369C86.2711 37.8539 88.3296 37.8539 88.3272 36.5369C88.3109 30.963 88.6961 25.4025 88.9973 19.8353C89.3186 14.0315 88.4699 8.34268 88.5673 2.55405C88.5874 1.24305 86.5313 1.24305 86.5054 2.55405H86.5058Z" fill="#473833"/>
<path d="M83.7821 13.3717C88.8799 14.0016 93.9661 13.4163 99.0826 13.3717C100.408 13.3636 100.412 11.3239 99.0826 11.339C93.9658 11.3759 88.8799 11.9689 83.7821 11.339C82.467 11.175 82.483 13.2124 83.7821 13.3717Z" fill="#473833"/>
<path d="M101.225 2.25084C100.54 7.37657 101.163 12.5923 101.619 17.7114C102.16 23.757 101.521 30.0137 102.819 35.9585C103.095 37.242 105.082 36.7007 104.799 35.4193C103.484 29.3884 104.144 22.9436 103.597 16.7992C103.165 11.9788 102.644 7.07351 103.284 2.25084C103.462 0.954283 101.395 0.96705 101.225 2.25084Z" fill="#473833"/>
<path d="M125.24 1.53417C125.291 6.73886 125.822 11.9335 126.27 17.122C126.834 23.6532 125.855 30.0016 125.777 36.5233C125.764 37.8356 127.822 37.8323 127.838 36.5233C127.907 30.4568 128.923 24.4975 128.44 18.43C127.995 12.7969 127.357 7.18169 127.293 1.53417C127.285 0.217125 125.224 0.217125 125.24 1.53417Z" fill="#473833"/>
<path d="M116.235 31.7411C117.59 29.5753 119.427 27.7845 121.362 26.1221C123.326 24.4278 125.582 23.1866 127.36 21.2789C128.251 20.3106 126.803 18.8662 125.903 19.8379C124.146 21.7322 121.886 23.0351 119.908 24.6814C117.82 26.4137 115.89 28.4165 114.457 30.7133C113.758 31.8341 115.543 32.8542 116.235 31.7411Z" fill="#473833"/>
<path d="M114.319 1.53464C113.046 12.7873 113.338 24.0971 113.171 35.3949C113.157 36.7085 115.214 36.7085 115.232 35.3949C115.399 24.0975 115.102 12.7873 116.377 1.53464C116.526 0.228012 114.461 0.240443 114.319 1.53464Z" fill="#473833"/>
<path d="M153.34 35.6428C153.314 30.6686 152.485 25.7243 152.213 20.7639C151.859 14.139 151.804 7.62531 151.072 1.00479C151.013 0.459157 150.652 0.0012136 150.054 0.000205653C145.98 -0.0182733 136.996 1.20134 136.376 6.58813C135.683 12.5891 145.322 10.9451 148.752 11.0335C148.457 10.5289 148.166 10.0262 147.875 9.52259C142.719 18.3078 137.806 27.2523 131.648 35.4066C130.862 36.4482 132.627 37.4474 133.404 36.423C139.557 28.2667 144.475 19.3198 149.631 10.5346C150.026 9.86227 149.516 9.04684 148.752 9.024C146.9 8.97562 145.05 9.06095 143.198 9.08481C141.177 9.34418 139.657 8.38832 138.646 6.21922C139.444 5.05471 140.48 4.20132 141.757 3.66576C142.701 3.14835 148.987 0.545167 149.245 2.90174C149.521 5.33357 149.761 7.76575 149.958 10.2046C150.331 14.8257 150.05 19.4512 150.395 24.0763C150.681 27.9367 151.283 31.7649 151.31 35.6435C151.318 36.934 153.344 36.9377 153.34 35.6435V35.6428Z" fill="#473833"/>
</svg>
