<svg width="25" height="24" viewBox="0 0 25 24" fill="none" xmlns="http://www.w3.org/2000/svg">
<path fill-rule="evenodd" clip-rule="evenodd" d="M17.5356 15.4573C19.9793 12.3188 19.7586 7.77813 16.8734 4.89295C13.7492 1.76876 8.68389 1.76876 5.5597 4.89295C2.4355 8.01714 2.4355 13.0825 5.5597 16.2067C8.44488 19.0918 12.9855 19.3126 16.124 16.8688C16.1376 16.8841 16.1517 16.8991 16.1663 16.9138L20.4089 21.1564C20.7995 21.5469 21.4326 21.5469 21.8232 21.1564C22.2137 20.7659 22.2137 20.1327 21.8232 19.7422L17.5805 15.4996C17.5659 15.4849 17.5509 15.4708 17.5356 15.4573ZM15.4592 6.30716C17.8023 8.65031 17.8023 12.4493 15.4592 14.7924C13.116 17.1356 9.31706 17.1356 6.97391 14.7924C4.63077 12.4493 4.63077 8.65031 6.97391 6.30716C9.31706 3.96402 13.116 3.96402 15.4592 6.30716Z" fill="#342824"/>
</svg>
