<svg width="24" height="35" viewBox="0 0 24 35" fill="none" xmlns="http://www.w3.org/2000/svg">
<path d="M19.925 16.6129C14.2514 21.6105 8.88987 26.2904 3.67014 31.0858C2.96094 31.7502 2.90421 33.1368 2.53542 34.1768C3.52831 33.9168 4.71976 33.9168 5.4857 33.339C11.4146 28.7169 17.2868 24.0082 23.0455 19.184C23.6129 18.6929 23.8398 16.8729 23.4143 16.3241C22.1377 14.6775 20.5491 13.2042 18.8754 11.9042C14.2798 8.32212 9.5707 4.85558 4.91834 1.33126C4.40772 0.955715 3.95383 0.32019 3.38646 0.233526C2.50705 0.089087 1.54254 0.262404 0.634766 0.291292C0.975182 1.07126 1.11702 2.14012 1.71275 2.60233C6.47858 6.35775 11.3011 9.96873 16.1237 13.6664C17.4286 14.6774 18.7619 15.6885 19.925 16.6129Z" fill="#342824"/>
</svg>
